# xmcd CD database file
#
# Track frame offsets:
#	150
#	14997
#	25128
#	44337
#	59634
#	74460
#	89145
#	97803
#	120748
#	136423
#	147060
#	164963
#	178709
#	202090
#	219953
#	233753
#
# Disc length: 3315 seconds
#
# Revision: 1
# Processed by: cddbd v1.5.2PL0 Copyright (c) Steve Scherf et al.
# Submitted via: CDex 1.51
#
DISCID=f80cf110
DTITLE=Various Artist - A Good Old Country Christmas
DYEAR=2005
DGENRE=Country
TTITLE0=Loretta Lynn - Away in a Manger
TTITLE1=Merle Haggard - Santa Clause and Popcorn
TTITLE2=Mickey Gilley - O Little Town of Bethlehem
TTITLE3=Tom T. Hall - O Christmas Tree
TTITLE4=Charley Pride - Joy to the World
TTITLE5=Waylon Jennings - O Come all Ye Faithful
TTITLE6=Porter Wagoner - We wish you a Merry Christmas
TTITLE7=Lee Greenwood - The twelve days of Christmas
TTITLE8=Roy Clark - It came upon a midnight clear
TTITLE9=Boxcar Willie - Deck the Halls
TTITLE10=Willie Nelson - The First Noel
TTITLE11=Crystal Gayle - Hallelujah
TTITLE12=Larry Gatlin - O Holy Night
TTITLE13=Glen Campbell - The Little Drummer Boy
TTITLE14=Lee Greenwood - What Child is This?
TTITLE15=Louise Mandrell with Pedro Thomas  - Silent Night
EXTD=YEAR: 2005
EXTT0=
EXTT1=
EXTT2=
EXTT3=
EXTT4=
EXTT5=
EXTT6=
EXTT7=
EXTT8=
EXTT9=
EXTT10=
EXTT11=
EXTT12=
EXTT13=
EXTT14=
EXTT15=
PLAYORDER=
